<svg width="100" height="52" viewBox="0 0 100 52" fill="none" xmlns="http://www.w3.org/2000/svg">
<path fill-rule="evenodd" clip-rule="evenodd" d="M93.2162 26.2208C93.2162 25.058 93.0121 23.9737 92.6037 22.968C92.1954 21.9624 91.638 21.0824 90.9314 20.3281C90.2247 19.5738 89.4003 18.9846 88.4581 18.5603C87.5159 18.136 86.5109 17.9239 85.443 17.9239C84.3753 17.9239 83.3702 18.136 82.428 18.5603C81.4858 18.9846 80.6614 19.5738 79.9548 20.3281C79.2481 21.0824 78.6906 21.9624 78.2823 22.968C77.874 23.9737 77.6699 25.058 77.6699 26.2208C77.6699 27.3837 77.874 28.4679 78.2823 29.4736C78.6906 30.4793 79.2481 31.3593 79.9548 32.1136C80.6614 32.8678 81.4858 33.4571 82.428 33.8814C83.3702 34.3057 84.3753 34.5178 85.443 34.5178C86.5109 34.5178 87.5159 34.3057 88.4581 33.8814C89.4003 33.4571 90.2247 32.8678 90.9314 32.1136C91.638 31.3593 92.1954 30.4793 92.6037 29.4736C93.0121 28.4679 93.2162 27.3837 93.2162 26.2208ZM100 26.2208C100 28.2637 99.6231 30.1572 98.8694 31.9014C98.1156 33.6456 97.0792 35.1542 95.7601 36.427C94.441 37.6998 92.8943 38.7055 91.1198 39.4441C89.3453 40.1827 87.4531 40.5519 85.443 40.5519C83.433 40.5519 81.5486 40.1827 79.7898 39.4441C78.0311 38.7055 76.4921 37.6921 75.1731 36.4035C73.854 35.1149 72.8176 33.5986 72.0639 31.8543C71.3101 30.1101 70.9332 28.2322 70.9332 26.2208C70.9332 24.2409 71.318 22.3788 72.0874 20.6345C72.8568 18.8903 73.9011 17.366 75.2202 16.0618C76.5392 14.7575 78.0782 13.7361 79.837 12.9976C81.5957 12.259 83.4644 11.8897 85.443 11.8897C87.4531 11.8897 89.3453 12.259 91.1198 12.9976C92.8943 13.7361 94.441 14.7418 95.7601 16.0146C97.0792 17.2875 98.1156 18.8039 98.8694 20.5638C99.6231 22.3238 100 24.2095 100 26.2208ZM68.5777 39.7034C68.0437 39.9548 67.4392 40.1591 66.764 40.3162C66.0887 40.4734 65.3899 40.5519 64.6676 40.5519C63.6626 40.5519 62.6968 40.4184 61.7703 40.1513C60.8438 39.8841 60.0351 39.452 59.3442 38.8549C58.6532 38.2578 58.1036 37.4798 57.6953 36.5213C57.287 35.5628 57.0828 34.4078 57.0828 33.0564V0.71714H64.008V31.8779C64.008 33.0092 64.2357 33.7871 64.6911 34.2114C65.1465 34.6357 65.6882 34.8478 66.3164 34.8478C67.1016 34.8478 67.8553 34.6121 68.5777 34.1407V39.7034V39.7034ZM54.0207 12.5497L41.7721 44.9362C40.8614 47.3561 39.6679 49.1003 38.1917 50.1689C36.7156 51.2374 34.9569 51.7717 32.9154 51.7717C32.6015 51.7717 32.2559 51.7482 31.879 51.701C31.5021 51.6538 31.141 51.5832 30.7955 51.4889L28.5343 45.1719C29.0682 45.4233 29.6178 45.6197 30.1831 45.7611C30.7484 45.9025 31.2823 45.9733 31.7848 45.9733C32.8526 45.9733 33.8263 45.7297 34.7056 45.2426C35.585 44.7555 36.2603 43.8519 36.7314 42.5319L37.6735 39.7977L27.1681 12.5497H34.5643L40.8299 30.0864L46.7187 12.5497H54.0207ZM25.5192 8.44839H7.80587V17.2167H25.2837V23.1566H7.80587V39.8448H0.645172V2.1785H25.5192V8.44839Z" fill="white"/>
</svg>
